<?xml version="1.0"?>
<svg width="32" height="32" xmlns="http://www.w3.org/2000/svg" xmlns:svg="http://www.w3.org/2000/svg">
 <g class="layer">
  <title>Layer 1</title>
  <path d="m23.75,30c-0.12,0.07 -0.11,0.09 0,0.03c0.04,-0.02 0.07,-0.04 0.1,-0.06c0,-0.02 0,-0.02 -0.1,0.03zm0.24,-0.12c-0.06,0.04 -0.06,0.04 0.01,0.01c0.04,-0.02 0.07,-0.04 0.07,-0.05c0,-0.02 -0.02,-0.02 -0.08,0.03l0,0.01zm0.15,-0.1c-0.05,0.05 -0.05,0.05 0.02,0.02c0.03,-0.02 0.06,-0.05 0.06,-0.05c0,-0.03 -0.01,-0.02 -0.08,0.03zm0.16,-0.09c-0.05,0.04 -0.05,0.04 0.01,0.01c0.04,-0.02 0.07,-0.04 0.07,-0.04c0,-0.03 -0.02,-0.02 -0.08,0.03zm0.22,-0.14c-0.11,0.07 -0.15,0.12 -0.05,0.07c0.07,-0.05 0.18,-0.14 0.16,-0.14c-0.04,0.02 -0.08,0.05 -0.11,0.07zm-9.57,-29.54c-0.07,0.01 -0.29,0.03 -0.48,0.04c-4.55,0.41 -8.8,2.86 -11.5,6.63c-1.49,2.07 -2.46,4.47 -2.83,6.99c-0.12,0.88 -0.14,1.14 -0.14,2.34c0,1.19 0.02,1.44 0.14,2.32c0.88,6.01 5.15,11.06 10.95,12.93c1.04,0.33 2.13,0.56 3.38,0.7c0.48,0.06 2.58,0.06 3.06,0c2.15,-0.24 3.97,-0.77 5.77,-1.68c0.27,-0.14 0.33,-0.18 0.29,-0.21c-0.88,-1.16 -1.75,-2.32 -2.61,-3.5l-2.56,-3.45l-3.2,-4.74c-1.07,-1.59 -2.14,-3.18 -3.23,-4.75c-0.01,0 -0.02,2.11 -0.03,4.68c-0.01,4.51 -0.01,4.69 -0.07,4.79c-0.06,0.13 -0.15,0.23 -0.27,0.29c-0.1,0.05 -0.19,0.06 -0.67,0.06l-0.54,0l-0.14,-0.09c-0.09,-0.06 -0.16,-0.14 -0.21,-0.23l-0.06,-0.14l0,-6.27l0.01,-6.27l0.1,-0.13c0.06,-0.07 0.14,-0.14 0.23,-0.18c0.13,-0.07 0.18,-0.08 0.72,-0.08c0.64,0 0.74,0.03 0.91,0.21c1.3,1.93 2.59,3.87 3.86,5.81c2.08,3.16 4.92,7.46 6.31,9.57l2.54,3.83l0.12,-0.08c1.22,-0.81 2.33,-1.78 3.29,-2.88c2.02,-2.31 3.32,-5.15 3.77,-8.18c0.13,-0.88 0.14,-1.14 0.14,-2.33c0,-1.2 -0.01,-1.45 -0.14,-2.33c-0.87,-6.01 -5.15,-11.06 -10.95,-12.93c-1.08,-0.34 -2.2,-0.58 -3.32,-0.7c-0.31,-0.03 -2.38,-0.06 -2.64,-0.04zm6.55,9.68c0.15,0.07 0.27,0.21 0.32,0.36c0.02,0.09 0.03,1.83 0.02,5.74l-0.01,5.63l-0.99,-1.52l-0.99,-1.52l0,-4.09c0,-2.65 0.01,-4.13 0.02,-4.2c0.05,-0.17 0.17,-0.31 0.32,-0.4c0.12,-0.06 0.17,-0.06 0.66,-0.06c0.47,0 0.54,0 0.65,0.06z" fill="#00007f" id="svg_1"/>
 </g>
</svg>